HIERARCHY
ROOT hip
{
  OFFSET 0 0 0
  CHANNELS 6 Xposition Yposition Zposition Zrotation Yrotation Xrotation
  JOINT abdomen
  {
    OFFSET 0 20.6881 -0.73152
    CHANNELS 3 Zrotation Xrotation Yrotation
    JOINT chest
    {
      OFFSET 0 11.7043 -0.48768
      CHANNELS 3 Zrotation Xrotation Yrotation
      JOINT neck
      {
        OFFSET 0 22.1894 -2.19456
        CHANNELS 3 Zrotation Xrotation Yrotation
        JOINT head
        {
          OFFSET -0.24384 7.07133 1.2192
          CHANNELS 3 Zrotation Xrotation Yrotation
          JOINT leftEye
          {
            OFFSET 4.14528 8.04674 8.04672
            CHANNELS 3 Zrotation Xrotation Yrotation
            End Site
            {
              OFFSET 1 0 0
            }
          }
          JOINT rightEye
          {
            OFFSET -3.6576 8.04674 8.04672
            CHANNELS 3 Zrotation Xrotation Yrotation
            End Site
            {
              OFFSET 1 0 0
            }
          }
        }
      }
      JOINT rCollar
      {
        OFFSET -2.68224 19.2634 -4.8768
        CHANNELS 3 Zrotation Xrotation Yrotation
        JOINT rShldr
        {
          OFFSET -8.77824 -1.95073 1.46304
          CHANNELS 3 Zrotation Xrotation Yrotation
          JOINT rForeArm
          {
            OFFSET -28.1742 -1.7115 0.48768
            CHANNELS 3 Zrotation Xrotation Yrotation
            JOINT rHand
            {
              OFFSET -22.5879 0.773209 7.07136
              CHANNELS 3 Zrotation Xrotation Yrotation
              JOINT rThumb1
              {
                OFFSET -1.2192 -0.487915 3.41376
                CHANNELS 3 Zrotation Xrotation Yrotation
                JOINT rThumb2
                {
                  OFFSET -3.37035 -0.52449 3.41376
                  CHANNELS 3 Zrotation Xrotation Yrotation
                  End Site
                  {
                    OFFSET -1.78271 -1.18214 1.43049
                  }
                }
              }
              JOINT rIndex1
              {
                OFFSET -7.75947 0.938293 5.60832
                CHANNELS 3 Zrotation Xrotation Yrotation
                JOINT rIndex2
                {
                  OFFSET -2.54057 -0.884171 1.56538
                  CHANNELS 3 Zrotation Xrotation Yrotation
                  End Site
                  {
                    OFFSET -1.62519 -0.234802 1.16502
                  }
                }
              }
              JOINT rMid1
              {
                OFFSET -8.24714 1.18213 3.41376
                CHANNELS 3 Zrotation Xrotation Yrotation
                JOINT rMid2
                {
                  OFFSET -3.10165 -0.590103 1.0647
                  CHANNELS 3 Zrotation Xrotation Yrotation
                  End Site
                  {
                    OFFSET -2.48547 -0.328903 0.83742
                  }
                }
              }
              JOINT rRing1
              {
                OFFSET -8.82822 0.546677 1.51678
                CHANNELS 3 Zrotation Xrotation Yrotation
                JOINT rRing2
                {
                  OFFSET -2.60934 -0.819778 -0.0198488
                  CHANNELS 3 Zrotation Xrotation Yrotation
                  End Site
                  {
                    OFFSET -2.33842 -0.294052 0.168128
                  }
                }
              }
              JOINT rPinky1
              {
                OFFSET -8.27202 -0.0477905 -0.4584
                CHANNELS 3 Zrotation Xrotation Yrotation
                JOINT rPinky2
                {
                  OFFSET -1.82734 -0.647385 -0.700984
                  CHANNELS 3 Zrotation Xrotation Yrotation
                  End Site
                  {
                    OFFSET -1.69225 -0.51767 -0.607171
                  }
                }
              }
            }
          }
        }
      }
      JOINT lCollar
      {
        OFFSET 2.68224 19.2634 -4.8768
        CHANNELS 3 Zrotation Xrotation Yrotation
        JOINT lShldr
        {
          OFFSET 8.77824 -1.95073 1.46304
          CHANNELS 3 Zrotation Xrotation Yrotation
          JOINT lForeArm
          {
            OFFSET 28.1742 -1.7115 0.48768
            CHANNELS 3 Zrotation Xrotation Yrotation
            JOINT lHand
            {
              OFFSET 22.5879 0.773209 7.07136
              CHANNELS 3 Zrotation Xrotation Yrotation
              JOINT lThumb1
              {
                OFFSET 1.2192 -0.487915 3.41376
                CHANNELS 3 Zrotation Xrotation Yrotation
                JOINT lThumb2
                {
                  OFFSET 3.37035 -0.52449 3.41376
                  CHANNELS 3 Zrotation Xrotation Yrotation
                  End Site
                  {
                    OFFSET 1.78271 -1.18214 1.43049
                  }
                }
              }
              JOINT lIndex1
              {
                OFFSET 7.75947 0.938293 5.60832
                CHANNELS 3 Zrotation Xrotation Yrotation
                JOINT lIndex2
                {
                  OFFSET 2.54057 -0.884171 1.56538
                  CHANNELS 3 Zrotation Xrotation Yrotation
                  End Site
                  {
                    OFFSET 1.62519 -0.234802 1.16502
                  }
                }
              }
              JOINT lMid1
              {
                OFFSET 8.24714 1.18213 3.41376
                CHANNELS 3 Zrotation Xrotation Yrotation
                JOINT lMid2
                {
                  OFFSET 3.10165 -0.590103 1.0647
                  CHANNELS 3 Zrotation Xrotation Yrotation
                  End Site
                  {
                    OFFSET 2.48547 -0.328903 0.83742
                  }
                }
              }
              JOINT lRing1
              {
                OFFSET 8.82822 0.546677 1.51678
                CHANNELS 3 Zrotation Xrotation Yrotation
                JOINT lRing2
                {
                  OFFSET 2.60934 -0.819778 -0.0198488
                  CHANNELS 3 Zrotation Xrotation Yrotation
                  End Site
                  {
                    OFFSET 2.33842 -0.294052 0.168128
                  }
                }
              }
              JOINT lPinky1
              {
                OFFSET 8.27202 -0.0477905 -0.4584
                CHANNELS 3 Zrotation Xrotation Yrotation
                JOINT lPinky2
                {
                  OFFSET 1.82734 -0.647385 -0.700984
                  CHANNELS 3 Zrotation Xrotation Yrotation
                  End Site
                  {
                    OFFSET 1.69225 -0.51767 -0.607171
                  }
                }
              }
            }
          }
        }
      }
    }
  }
  JOINT rButtock
  {
    OFFSET -8.77824 4.35084 1.2192
    CHANNELS 3 Zrotation Xrotation Yrotation
    JOINT rThigh
    {
      OFFSET 0 -1.70687 -2.19456
      CHANNELS 3 Zrotation Xrotation Yrotation
      JOINT rShin
      {
        OFFSET 0 -36.8199 0.73152
        CHANNELS 3 Zrotation Xrotation Yrotation
        JOINT rFoot
        {
          OFFSET 0.73152 -45.1104 -5.12064
          CHANNELS 3 Zrotation Xrotation Yrotation
          End Site
          {
            OFFSET -1.1221 -3.69964 12.103
          }
        }
      }
    }
  }
  JOINT lButtock
  {
    OFFSET 8.77824 4.35084 1.2192
    CHANNELS 3 Zrotation Xrotation Yrotation
    JOINT lThigh
    {
      OFFSET 0 -1.70687 -2.19456
      CHANNELS 3 Zrotation Xrotation Yrotation
      JOINT lShin
      {
        OFFSET 0 -36.8199 0.73152
        CHANNELS 3 Zrotation Xrotation Yrotation
        JOINT lFoot
        {
          OFFSET -0.73152 -45.1104 -5.12064
          CHANNELS 3 Zrotation Xrotation Yrotation
          End Site
          {
            OFFSET 1.1221 -3.69964 12.103
          }
        }
      }
    }
  }
}
MOTION
Frames:	5
Frame Time:	0.00833333
45.3356 79.0748 28.4495 177.939951 -9.140333 -172.34397 1.785995 -4.898764 20.059342 0.997932 1.271538 -39.220036 -4.438203 13.593298 -54.923637 -3.290271 -3.901868 77.943405 0.000817 0.0 0.001801 -0.004555 0.0 -0.000184 -152.129144 14.113229 157.55676 -119.010055 29.175017 62.834609 170.750894 -79.474794 31.631401 -176.974295 -3.401548 142.892134 -5.432857 5.265267 1.078066 -37.052698 24.353216 35.470017 -8.12084 11.926731 5.138458 -61.646589 48.044494 46.092409 -82.840636 61.110349 74.532317 11.641254 -24.886809 -1.363496 -70.378107 -72.129802 -87.28023 -149.865814 -27.316106 -179.939496 12.253201 41.424874 10.279377 1.807528 0.198132 -0.230266 0.005314 0.033362 -0.007371 -84.487806 1.044549 -24.170109 2.942635 -3.089438 -62.35662 10.285606 -36.734715 8.927386 2.814095 2.754122 -0.498273 93.825935 15.972295 -86.258058 13.871917 18.815018 -9.290065 160.094757 -8.29363 -110.265931 169.089249 -33.2473 -145.375803 172.387239 -31.345522 -143.680644 -0.002882 0.876416 -0.273976 61.525681 -86.808609 83.006416 24.989713 -37.658125 24.062884 -37.497252 80.238677 0.468927 179.995297 75.749563 0.003218 -156.538188 55.118282 -19.331669 0.088066 42.25984 108.359921 -129.188128 85.795034 29.574744 -0.000213 7.9e-05 0.000274 16.028189 -49.943649 12.606722 6.836263 69.565749 111.995087 57.176904 74.85991 -148.473765
44.8793 79.142 27.725 178.410914 -6.854088 -172.408 3.998011 -9.290581 -156.591057 -1.167093 -5.955759 137.738547 13.473524 11.662665 65.395902 -7.147996 22.113997 -44.435664 -0.004438 0.0 -0.003245 -0.001028 -0.0 0.003993 3.541194 -62.053058 -13.039835 -83.255073 -17.584294 -90.028273 158.750737 16.292776 -69.911412 -19.008201 29.48274 3.607183 -103.199175 36.330402 60.111281 127.003983 -50.146723 59.329129 -160.015949 -33.011342 122.69937 86.121724 -69.423813 32.52613 -39.290773 53.365688 32.877879 -7.189158 26.201049 6.152523 -74.841873 72.960855 92.828042 -159.824203 -1.695773 176.526276 31.505654 83.082527 6.657113 -85.875946 -52.992438 -84.309114 159.220117 -48.028533 -170.415197 2.085955 17.249795 60.515131 -142.298551 83.660592 77.446727 12.751925 -26.059624 6.839239 169.319394 -7.000936 -89.922165 159.414446 -1.142234 -82.711566 140.762996 1.380586 -116.229212 5.782725 26.040627 2.269408 36.035867 51.723335 -29.831843 34.335452 55.120884 -29.132599 -0.003015 1.770786 -0.55724 156.614873 -42.779206 -177.029353 86.000202 -50.49824 84.371258 146.506281 11.904384 142.705564 179.982025 75.747941 0.012298 -156.675291 53.758619 -166.299316 -28.117695 -41.3608 -67.176458 -63.360028 0.620645 -142.128798 -0.00085 -7.5e-05 0.001093 16.643731 -49.958872 13.104479 -13.309766 67.308258 -158.916495 86.614721 6.828851 179.813215
44.467099999999995 79.2112 26.9621 179.000034 -4.431022 -172.407011 4.55743 -4.937113 -25.949017 -2.156114 0.784727 7.724276 -3.091366 23.817539 -117.326297 12.303967 -1.664337 140.146853 -0.000805 0.0 -0.001064 -0.000805 0.0 -0.001064 -155.504136 -3.514284 161.839248 -87.181305 21.155549 34.115539 125.517045 5.165962 -38.098956 -66.574313 64.93325 45.806853 -173.771383 -11.439615 89.891662 -77.887974 6.74067 25.374912 -150.886527 -16.290842 120.979401 -5.136911 28.104173 -1.873628 -82.840691 61.11065 74.532261 -3.090193 17.373411 3.497258 -72.349907 72.974544 90.218215 -157.645162 -37.75626 -178.068894 -77.072734 -51.586535 -75.529257 3.418243 -0.000477 -0.92609 33.833797 -85.665989 55.251004 -127.276553 41.176279 78.518643 -61.010002 -30.502947 -97.110207 24.298075 12.081764 -4.357148 176.928047 -14.532388 -89.657856 41.603462 -20.262273 -3.588548 145.521442 -6.585222 -118.766304 167.464383 -25.609091 -118.933655 160.34174 -5.64464 -143.085915 -28.76285 -58.768133 -6.24612 145.117654 0.226285 179.200224 153.321918 -19.049489 176.447614 157.333993 57.246602 150.508485 148.945094 13.643607 142.470136 9.8e-05 0.001095 0.000196 13.970963 -18.273079 -141.569035 -12.30578 -36.494771 122.47154 -50.288899 -47.283307 17.258957 0.000538 0.001095 0.000538 18.302542 -51.638427 -157.128118 4.923249 -60.994523 69.657495 40.249859 -45.580016 138.456113
44.040800000000004 79.2655 26.169700000000002 179.582964 -2.013024 -172.490948 2.819845 -5.010135 29.423066 1.178607 1.450534 -46.952025 6.380769 27.335825 -175.439909 17.64545 11.489025 -167.307608 0.003289 -0.0 -0.002855 0.001319 0.0 0.002456 -40.052107 -86.055148 -61.583551 -68.271173 -13.420543 -59.341145 -167.441743 40.349777 -88.185819 -6.919079 -2.307027 -2.681664 -95.360877 37.750875 54.682761 -57.143618 -3.023033 47.228673 -13.870398 18.815405 9.290277 -1.62931 14.673013 2.803748 2.100502 -6.305255 -1.082819 3.411162 -0.609273 -0.104667 -132.482099 54.10275 155.533115 -157.053937 -25.75706 -177.579035 -85.783193 -50.536009 -84.155138 -21.720819 -39.010618 -23.857365 82.106485 68.324235 -85.221501 -87.27748 -23.900643 -111.445649 40.238794 -15.436568 -40.708718 3.323265 -72.395961 14.171459 121.365345 30.330511 -71.958354 -24.372382 -38.283522 -26.850413 140.166742 2.326834 -115.877577 -95.177133 -70.222742 -43.978288 160.889579 -7.337571 -143.34522 -86.519093 -77.970985 -57.796511 145.1197 0.309995 179.225939 -11.937312 52.756219 2.721791 0.289085 -0.753632 0.268579 -14.881023 42.932776 -8.608312 -179.990817 75.748502 -0.006283 -155.633689 56.021713 -131.293849 -30.595588 -24.041181 76.708912 -87.368162 -58.588844 -3.238052 0.002763 9.9e-05 0.001382 18.842235 -50.752677 -156.219224 -17.569516 -53.71403 -105.588357 -132.053225 -45.017657 115.20108
43.5475 79.318 25.3286 179.94799 0.39425 -172.708841 3.717493 -9.320671 162.720481 2.361652 -5.886728 -179.067624 14.811836 13.612273 77.221584 -4.709593 23.930544 -57.285348 0.000919 -0.0 -0.001646 -0.00104 -0.0 0.00369 -131.055977 54.037515 134.943057 -104.349654 -2.65807 92.387874 -155.028403 59.311132 -101.201409 -5.736603 -6.027894 -2.960476 93.028365 -51.083765 40.501011 -138.52926 17.764959 100.235414 -150.885342 -16.291766 120.978073 177.672873 -49.203373 112.387137 -39.289672 53.365462 32.879078 -163.089239 -4.758992 143.24777 -1.4e-05 0.063716 0.020869 -156.33794 -19.607737 174.157876 -144.984586 11.468951 -141.654183 -25.699041 -40.242593 -27.036015 142.973103 39.43126 -147.389295 67.484748 18.197945 -18.383367 -12.276275 -29.184051 88.808959 153.077452 25.249133 -132.475407 68.055914 37.898876 -35.359882 166.087185 -44.011305 -83.006241 -1.337447 -2.205578 0.739014 -7.692433 5.903024 -0.479765 167.377151 -28.008465 -145.2676 -3.084465 0.167168 -0.369547 145.100581 -1.522139 178.650057 -12.257784 40.319404 4.410313 160.128448 66.42269 151.110257 161.338679 52.52412 147.527389 179.985146 75.750536 0.010163 -159.149005 58.405855 54.723356 42.78354 14.391058 63.984551 -6.457107 48.761712 -118.074713 0.004395 -0.000889 0.002197 20.244233 -48.776751 -97.68467 -50.484719 -26.114042 -54.864748 -18.594008 13.395489 147.658755
